# xmcd
#
# Track frame offsets:
#	150
#	28455
#	52097
#	67350
#	86955
#	103730
#	119477
#	136575
#	154047
#	184112
#
# Disc length: 2732 seconds
# Revision: 2
# Processed by: cddbd v1.5.2PL0 Copyright (c) Steve Scherf et al.
# Submitted via: dBpowerAMP V12.0
#
DISCID=970aaa0a
DTITLE=Kip Anderson - A Knife And a Fork
DYEAR=1993
DGENRE=Soul
TTITLE0=Private Tonight
TTITLE1=Pretty Woman
TTITLE2=Without a Woman
TTITLE3=Sweet Inspiration
TTITLE4=So Sad to be Lonesome
TTITLE5=A Knife And a Fork
TTITLE6=Lonely Avenue
TTITLE7=The Careless Things we do
TTITLE8=Blue Moon
TTITLE9=Givin' my Love to The Other Man
EXTD=
EXTT0=
EXTT1=
EXTT2=
EXTT3=
EXTT4=
EXTT5=
EXTT6=
EXTT7=
EXTT8=
EXTT9=
PLAYORDER=
